<?xml version="1.0" encoding="utf-8"?>
<!-- Generator: Adobe Illustrator 24.1.1, SVG Export Plug-In . SVG Version: 6.00 Build 0)  -->
<svg version="1.1" id="Layer_1" xmlns="http://www.w3.org/2000/svg" xmlns:xlink="http://www.w3.org/1999/xlink" x="0px" y="0px"
	 viewBox="0 0 470.34 358" style="enable-background:new 0 0 470.34 358;" xml:space="preserve">
<style type="text/css">
	.st0{fill:#36265A;}
</style>
<path class="st0" d="M470.34,0v356.14c-2.15,0.21-4.38,0.35-6.7,0.42c-38.81,1.26-32.94-28.26-60.58-40.26
	c-30.46-13.22-80.74,21.11-110.79,22.58c-35.77,1.75-69.62-76.15-97.64-86.72c-111.92-42.23-123.25,61.12-158.34-3.29
	c-36.71-67.42,2.41-115.28,74.43-121.95c37.13-3.44,47.84,11.8,72.51-15.02c27.03-29.39,44.21-68.96,89.1-62.21
	C327.55,57.99,315.6,25.2,328.29,0H470.34z"/>
</svg>
