<?xml version="1.0" encoding="utf-8"?>
<!-- Generator: Adobe Illustrator 24.1.1, SVG Export Plug-In . SVG Version: 6.00 Build 0)  -->
<svg version="1.1" id="Layer_1" xmlns="http://www.w3.org/2000/svg" xmlns:xlink="http://www.w3.org/1999/xlink" x="0px" y="0px"
	 viewBox="0 0 686.2 358" style="enable-background:new 0 0 686.2 358;" xml:space="preserve">
<style type="text/css">
	.st0{fill:#36265A;}
</style>
<g>
	<path class="st0" d="M686.2,0v356.14c-2.15,0.21-4.38,0.35-6.7,0.42c-38.81,1.26-32.94-28.26-60.58-40.26
		c-30.46-13.22-80.74,21.11-110.79,22.58c-35.77,1.75-69.62-76.15-97.64-86.72c-111.92-42.23-123.25,61.12-158.34-3.29
		c-36.71-67.42,2.41-115.28,74.43-121.95c37.13-3.44,47.84,11.8,72.51-15.02c27.03-29.39,44.21-68.96,89.1-62.21
		c55.22,8.3,43.27-24.49,55.96-49.69H686.2z"/>
	<path class="st0" d="M241.45,50.45c-12.6,22.6-42.2,35.5-69.69,30.36c-19.23-3.6-38.67-15.02-56.96-9.37
		c-10.86,3.35-18.42,12.07-25.58,20.26c-12.96,14.84-26.98,29.54-45.36,38.28c-13.36,6.35-29.58,8.99-44.28,5.78V0h243.84
		C250.24,16.38,249.94,35.21,241.45,50.45z"/>
</g>
</svg>
