<?xml version="1.0" encoding="utf-8"?>
<!-- Generator: Adobe Illustrator 24.1.1, SVG Export Plug-In . SVG Version: 6.00 Build 0)  -->
<svg version="1.1" id="Layer_1" xmlns="http://www.w3.org/2000/svg" xmlns:xlink="http://www.w3.org/1999/xlink" x="0px" y="0px"
	 viewBox="0 0 402.44 304.46" style="enable-background:new 0 0 402.44 304.46;" xml:space="preserve">
<style type="text/css">
	.st0{fill:#CE4A43;}
	.st1{fill:#292457;}
	.st2{fill:#36265A;}
	.st3{clip-path:url(#SVGID_2_);fill:#36265A;}
	.st4{clip-path:url(#SVGID_2_);}
	.st5{fill:none;stroke:#FFFFFF;stroke-width:2;stroke-miterlimit:10;}
	.st6{fill:#FCCA10;}
	.st7{fill:#EBF6FA;}
	.st8{fill:#DCEFF6;}
	.st9{fill:none;stroke:#36265A;stroke-width:2;stroke-miterlimit:10;}
	.st10{fill:#8B3B2D;}
	.st11{fill:#17223C;}
	.st12{fill:#935146;}
	.st13{fill:#1B2B4D;}
	.st14{fill:#E9664E;}
	.st15{fill:#FFFFFF;}
	.st16{opacity:0.4;fill:#D9D6EC;}
	.st17{clip-path:url(#SVGID_4_);}
	.st18{fill:#39304A;}
	.st19{fill:none;stroke:#FFFFFF;stroke-width:1.1956;stroke-miterlimit:10;}
</style>
<g>
	<g>
		<path class="st0" d="M323.22,208.9c0.9-1.53,1.9-3.72,1.65-5.39c-0.25-1.67-1.09-4.44-2.68-2.03c0,0,0.57,4.49,0.1,5.48
			C321.84,207.94,323.05,208.27,323.22,208.9z"/>
		<g>
			<path class="st1" d="M313.16,217.69c5.41,4.78,11.47-5.62,11.66-7.17c0.49-3.91-2.83-7.52-3.19-2.64
				c-0.35,4.87-4.57,6.84-7.31,6.48C311.59,214.01,314.16,218.09,313.16,217.69z"/>
		</g>
	</g>
	<g>
		<path class="st2" d="M218.86,270.49l-7.32,1.48c-8.38,1.7-16.88-2.29-20.94-9.81l-41.97-77.67l47.12-9.54l36.34,67.25
			C238.3,253.69,231.65,267.9,218.86,270.49z"/>
		<g>
			<defs>
				<path id="SVGID_1_" d="M161.76,195.1l-27.93,5.65c-21.93,4.44-43.3-9.74-47.74-31.67l-0.35-1.75
					c-4.44-21.93,9.74-43.3,31.67-47.74l27.93-5.65L161.76,195.1z"/>
			</defs>
			<clipPath id="SVGID_2_">
				<use xlink:href="#SVGID_1_"  style="overflow:visible;"/>
			</clipPath>
			<path class="st3" d="M161.76,195.1l-27.93,5.65c-21.93,4.44-43.3-9.74-47.74-31.67l-0.35-1.75c-4.44-21.93,9.74-43.3,31.67-47.74
				l27.93-5.65L161.76,195.1z"/>
			<g class="st4">
				<line class="st5" x1="84.78" y1="206.24" x2="169.4" y2="189.12"/>
				<line class="st5" x1="82.33" y1="194.14" x2="166.95" y2="177.02"/>
				<line class="st5" x1="79.88" y1="182.04" x2="164.5" y2="164.91"/>
				<line class="st5" x1="77.43" y1="169.93" x2="162.05" y2="152.81"/>
				<line class="st5" x1="74.98" y1="157.83" x2="159.6" y2="140.71"/>
				<line class="st5" x1="72.53" y1="145.73" x2="157.15" y2="128.61"/>
				<line class="st5" x1="70.08" y1="133.63" x2="154.7" y2="116.5"/>
			</g>
		</g>
		<path class="st6" d="M365.74,206.62l-209.18-10.63c-18.04-4.81-30.6-68.59-16.35-80.82l188.59-91.12L365.74,206.62z"/>
		<path class="st6" d="M371.69,110.39c10.2,50.42,7.54,93.5-5.95,96.23c-11.45,2.32-27.01-25.18-37.69-64.36
			c-1.91-6.99-3.66-14.35-5.21-21.99c-1.54-7.63-2.79-15.09-3.75-22.28c-5.39-40.25-1.75-71.63,9.7-73.95
			C342.28,21.31,361.49,59.97,371.69,110.39z"/>
		<path class="st7" d="M371.69,110.39c10.2,50.42,7.54,93.5-5.95,96.23c-11.45,2.32-27.01-25.18-37.69-64.36
			c-1.91-6.99-3.66-14.35-5.21-21.99c-1.54-7.63-2.79-15.09-3.75-22.28c-5.39-40.25-1.75-71.63,9.7-73.95
			C342.28,21.31,361.49,59.97,371.69,110.39z"/>
		<path class="st2" d="M369.89,110.75c9.37,46.28,7.96,85.62-3.13,87.87c-9.42,1.91-22.79-23.52-32.34-59.54
			c-1.71-6.43-3.29-13.19-4.71-20.2c-1.42-7.01-2.59-13.85-3.51-20.44c-5.2-36.9-2.77-65.52,6.65-67.43
			C343.94,28.77,360.53,64.47,369.89,110.75z"/>
		<path class="st8" d="M363.03,112.14c2.53,12.52-5.56,24.72-18.08,27.26c-3.62,0.73-7.2,0.58-10.53-0.32
			c-1.71-6.43-3.29-13.19-4.71-20.2c-1.42-7.01-2.59-13.85-3.51-20.44c2.72-2.12,5.96-3.66,9.58-4.39
			C348.3,91.52,360.5,99.62,363.03,112.14z"/>
	</g>
	<g>
		<g>
			<path class="st2" d="M141.7,255.63H23.13c-1.66,0-3-1.34-3-3v-22.74c0-1.66,1.34-3,3-3H141.7V255.63z"/>
			<path class="st8" d="M141.7,253.26H30.68c-1.38,0-2.5-1.12-2.5-2.5v-18.99c0-1.38,1.12-2.5,2.5-2.5H141.7V253.26z"/>
			<line class="st9" x1="28.17" y1="235.26" x2="141.7" y2="235.26"/>
			<line class="st9" x1="28.17" y1="241.26" x2="141.7" y2="241.26"/>
			<line class="st9" x1="28.17" y1="247.26" x2="141.7" y2="247.26"/>
		</g>
		<g>
			<path class="st6" d="M160.41,277.55H41.96v-21.7h118.45c1.72,0,3.12,1.39,3.12,3.12v15.47
				C163.53,276.15,162.13,277.55,160.41,277.55z"/>
			<path class="st8" d="M155.61,274.43H41.96v-15.47h113.65c1.23,0,2.22,0.99,2.22,2.22v11.03
				C157.83,273.44,156.84,274.43,155.61,274.43z"/>
			<line class="st9" x1="41.96" y1="262.21" x2="157.83" y2="262.21"/>
			<line class="st9" x1="41.96" y1="268.6" x2="157.83" y2="268.6"/>
		</g>
	</g>
	<g>
		<g>
			<g>
				<g>
					<path class="st10" d="M84.17,226.89c-3.15,0-5.02-2.23-5.02-2.23l-0.17-1.84l-1.42,0.81l-0.69-0.45l2.6-4.15l2.06,1.34
						c0,0-1,1.36-0.11,2.59C82.78,224.84,86.04,226.88,84.17,226.89z"/>
					<g>
						<path class="st11" d="M82.19,219.51c-1.2,1.95-2.45,2.15-4.66,1.08c1.94-18.94-0.79-23.17-5.65-38.81
							c1.71-1.2,3.42-2.41,5.13-3.61C83.59,194.12,84.45,206.85,82.19,219.51z"/>
					</g>
				</g>
				<g>
					<path class="st12" d="M73.83,226.89c-3.15,0-5.02-2.23-5.02-2.23l-0.17-1.84l-1.42,0.81l-0.69-0.45l2.6-4.15l2.06,1.34
						c0,0-1,1.36-0.11,2.59C72.45,224.84,75.7,226.88,73.83,226.89z"/>
					<polygon class="st13" points="71.23,221.06 67.37,220.96 67.85,178.89 75.59,182.48 					"/>
				</g>
			</g>
			<g>
				<path class="st0" d="M75.82,154.61l-4.1,4.6l3.82,2.69c0,0,3.07-4.38,3.75-4.78C79.98,156.71,75.82,154.61,75.82,154.61z"/>
				<path class="st6" d="M73.65,156.93c0,0,1.87,1.73,2.91,5.32c0.8,2.75,0.28,9.29,0.77,12.72c0.35,2.43,2.53,9.5,2.53,9.5
					s-9.16,3.18-12.16-0.81c-1.19-1.58,1.7-7.72,0.84-18.43C68.09,159.41,71.62,157.59,73.65,156.93z"/>
				<g>
					<path class="st14" d="M85.22,171.06c2.8-0.04,5.45-1.37,8.41-2.07c0.49-0.11,2.89-0.98,2.29-1.6
						c-1.29-1.32-3.94-0.82-6.21,0.02c-1.55,0.57-2.44,0.85-3.73,1.11C83.84,168.94,84.87,170.55,85.22,171.06z"/>
					<path class="st6" d="M76.57,162.26c1.29,5.76,10.69,5.32,13.6,4.77c2.59-0.49,4.49,1.32,2.88,2.22c-5.36,3-14.7,2.31-17.68-0.7
						C72.38,165.54,74.26,163.56,76.57,162.26z"/>
				</g>
			</g>
			<g>
				<g>
					<path class="st14" d="M82.47,155.14c-0.73,2.16-1.41,4.77-3.14,4.18c-1.73-0.59-3.87-4.15-3.13-6.31
						c0.73-2.16,2.73-3.44,4.47-2.85C82.4,150.75,83.2,152.98,82.47,155.14z"/>
				</g>
				<path class="st11" d="M82.05,149.49c1.21,0.4,0.6,1.19,0.58,2.04c0.52-0.04,1.24-0.05,1.56,0.46c0.35,0.56-0.14,1.62-0.61,1.98
					c-1.08,0.84-2.59-0.99-3.64-1.21c-0.9-0.19-1.97,0.48-2.02,1.15c-0.03,0.42-2.23,1.64-2.89,1.59c-0.54-0.04-0.71-0.72-0.62-1.54
					c0.07-0.66,0.6-0.88,0.69-1.52c0.09-0.62,0.15-1.18,0.42-1.76c0.48-1.04,1.63-2.36,2.87-2.43c0.82-0.05,0.96,0.58,1.59,0.92
					C80.6,149.51,81.38,149.27,82.05,149.49z"/>
				<path class="st15" d="M81.43,157.69l-1.05-0.38C80.38,157.31,80.13,159.76,81.43,157.69z"/>
			</g>
		</g>
	</g>
	<g>
		<g>
			<g>
				<path class="st1" d="M324.9,282.97l-10.61-0.1l0.05-5.01l2.74,0.03l1.58,2.52c1.48,0.39,4.39,0.26,5.35,1.46L324.9,282.97z"/>
				<g>
					<path class="st0" d="M317.08,277.89l-2.74-0.03c0.35-13.83,2.77-22.26-5.46-39.2c1.96-1.17,3.92-2.34,5.89-3.5
						C323.29,253.59,320.79,258.21,317.08,277.89z"/>
				</g>
			</g>
			<g>
				<path class="st2" d="M313.01,282.97l-10.61-0.1l0.05-5.01l2.74,0.03l1.58,2.52c1.48,0.39,4.39,0.26,5.35,1.46L313.01,282.97z"/>
				<polygon class="st14" points="305.19,277.89 302.45,277.87 304.52,235.57 312.98,239.52 				"/>
			</g>
		</g>
		<g>
			<path class="st0" d="M309.02,205.14l0.67,8.65l3.86,2.22c0,0-0.34-6.54,0.44-6.96C314.77,208.62,309.02,205.14,309.02,205.14z"/>
			<path class="st2" d="M309.53,211.75c0,0,3.96,3.45,3.95,1.08c-0.01-1.33,3.66,4.3,4.07,6.18c0.35,1.6-0.2,4.81-0.2,4.81
				l4.67,33.84c0,0-17.73,2.71-19.97-2.4c-3.39-7.71,5.39-26.1,3.52-37.95C305.29,215.59,307.23,212.39,309.53,211.75z"/>
			<g>
				<path class="st14" d="M294.88,209.26c-1.34-1.63-2.82-3.97-2.45-5.76c0.37-1.79,1.61-4.74,3.97-2.17c0,0-0.84,4.79-0.15,5.85
					C296.93,208.25,295.14,208.59,294.88,209.26z"/>
				<g>
					<path class="st2" d="M309.8,218.66c-8.02,5.11-17.01-6.01-17.3-7.66c-0.73-4.18,4.2-8.03,4.73-2.82
						c0.53,5.21,6.79,7.3,10.84,6.93C312.14,214.72,308.32,219.08,309.8,218.66z"/>
				</g>
			</g>
		</g>
		<g>
			<path class="st14" d="M315.54,204.82c0.08,2.6,0.39,5.65-1.69,5.71c-2.08,0.06-5.77-2.89-5.85-5.49
				c-0.08-2.6,1.55-4.76,3.63-4.82C313.71,200.16,315.46,202.22,315.54,204.82z"/>
			<path class="st13" d="M306.87,202.18c-0.71,1.04-0.82,2.46-0.35,3.64c0.47,1.18,1.53,2.1,2.76,2.39
				c-0.37-0.57,0.01-1.32,0.41-1.86c0.4-0.55,0.86-1.2,0.65-1.84c-0.07-0.21-0.2-0.38-0.28-0.59c-0.08-0.2-0.08-0.46,0.09-0.61
				c0.11-0.09,0.25-0.11,0.39-0.13c1.98-0.2,4.04,0.45,5.54,1.75c-0.13-0.96-0.29-1.93-0.62-2.85c-0.33-0.92-0.85-1.78-1.6-2.4
				c-0.76-0.61-1.75-0.84-2.72-0.76c-1.38,0.12-2.03,1.77-2.03,1.77S307.99,200.54,306.87,202.18z"/>
			<path class="st15" d="M315.4,207.44l-1.88,0.14C313.52,207.57,314.72,209.93,315.4,207.44z"/>
		</g>
	</g>
	<g>
		<g>
			
				<rect x="209.19" y="189.6" transform="matrix(0.9428 0.3335 -0.3335 0.9428 82.6347 -59.0541)" class="st12" width="8.29" height="43.15"/>
			<path class="st12" d="M238.31,133.07c-16.06-5.68-33.67,2.73-39.35,18.78c-5.68,16.05,2.73,33.67,18.78,39.35
				c16.06,5.68,33.67-2.73,39.35-18.79C262.77,156.36,254.36,138.74,238.31,133.07z M255.14,165.96
				c-2.12,14.98-15.97,25.4-30.95,23.29c-14.97-2.12-25.4-15.97-23.28-30.95c2.12-14.97,15.97-25.4,30.94-23.28
				C246.83,137.13,257.25,150.99,255.14,165.96z"/>
			
				<ellipse transform="matrix(0.3034 -0.9529 0.9529 0.3034 4.3454 330.2089)" class="st16" cx="228.02" cy="162.13" rx="27.38" ry="27.38"/>
			<g>
				<defs>
					
						<ellipse id="SVGID_3_" transform="matrix(0.6036 -0.7973 0.7973 0.6036 -38.8743 246.0817)" cx="228.02" cy="162.13" rx="27.38" ry="27.38"/>
				</defs>
				<clipPath id="SVGID_4_">
					<use xlink:href="#SVGID_3_"  style="overflow:visible;"/>
				</clipPath>
				<g class="st17">
					
						<rect x="214.47" y="113.23" transform="matrix(0.672 0.7405 -0.7405 0.672 185.3462 -111.055)" class="st7" width="7.16" height="80.98"/>
					
						<rect x="236.83" y="142.27" transform="matrix(0.672 0.7405 -0.7405 0.672 213.5886 -116.7633)" class="st7" width="3.58" height="80.98"/>
					
						<rect x="219.6" y="123.5" transform="matrix(0.672 0.7405 -0.7405 0.672 196.0017 -114.5861)" class="st7" width="15.54" height="80.98"/>
				</g>
			</g>
		</g>
		<g>
			<g>
				<path class="st14" d="M216.86,213.42l1.36-3.7c0,0,2.06,2.25-0.83,7.39C214.72,221.87,216.86,213.42,216.86,213.42z"/>
				<path class="st8" d="M204.29,214.85c0,0,6.32,7.28,12.06-0.66c0.35,1.01,1.04,3.79,1.04,3.79s-5.95,10.09-14.86,1.77
					C200.7,218.04,204.29,214.85,204.29,214.85z"/>
			</g>
			<g>
				<path class="st6" d="M188.66,237.18c-0.62,2.59,1.02,42.3,1.57,42.3c0,0,1.79-0.58,3.13-0.49c1.38,0.1,2.61-26.73,3.41-30.83
					c1.54,5.2,4.03,31.13,5.29,31.47c1.6,0.43,2.88,1.24,3.02-0.82c0.74-10.76-0.79-42.29-3.32-44.65
					C199.02,231.58,189.62,233.14,188.66,237.18z"/>
				<path class="st18" d="M206.81,281.44c0,1.5-1.81,1.53-2.87,1.53c-1.06,0-2.17,0-2.17-2.27c0-1.5,0.79-2.9,1.85-2.9
					C204.68,277.8,206.81,279.94,206.81,281.44z"/>
				<path class="st18" d="M194.63,281.44c0,1.5-1.81,1.53-2.87,1.53c-1.06,0-2.17,0-2.17-2.27c0-1.5,0.79-2.9,1.85-2.9
					C192.5,277.8,194.63,279.94,194.63,281.44z"/>
			</g>
			<g>
				<path class="st0" d="M196.32,204.52c0,0-0.87,5.69-2.61,7.2c-1.74,1.51,5.22,1.14,5.22,1.14s-0.51-2.88,0.92-2.99
					C201.29,209.75,196.32,204.52,196.32,204.52z"/>
				<path class="st8" d="M193.61,209.75c0.22,2.17-2.65,2.64-4.11,3.29c-2.87,1.27-2.36,22.31-0.84,24.14c0,0,11.39,2.63,13.99-0.33
					c1.28-1.46,1.64-22,1.64-22c-0.89-0.55-5.23-2.25-5.08-3.43C199.28,210.75,194.18,209.51,193.61,209.75z"/>
			</g>
			<g>
				<g>
					<path class="st14" d="M201.97,204.5c0,2.27,0.35,5.68-0.83,6.1c-1.04,0.37-2.81-0.98-3.48-2.13c-0.71-1.22-0.3-2.29-0.3-3.46
						c0-2.27-1.77-4.62,0.5-4.62C200.13,200.39,201.97,202.23,201.97,204.5z"/>
					<path class="st6" d="M193.31,205.73c-0.8-2.51,0.25-5.52,3.39-6.1c1.51-0.28,2.45,0.16,3.77,1.03c0.88,0.58,1.87,2.28,3.11,1.7
						c-1.01,2-2.13,0.03-3.34,0.82c-0.63,0.41-0.35,2.21-1.06,2.42c-0.21,0.06-1.07-0.05-1.29-0.06c-0.64,1.28,0.53,3.44-1.75,2.94
						C194.97,208.21,193.65,206.8,193.31,205.73z"/>
				</g>
			</g>
		</g>
	</g>
</g>
<g>
	<path class="st8" d="M114.44,100.78H81.17l-5.38,39.09l-9.54-39.09c-7.28,0-13.19-5.9-13.19-13.19V68.97
		c0-7.28,5.9-13.19,13.19-13.19h48.2c7.28,0,13.19,5.9,13.19,13.19v18.63C127.62,94.87,121.72,100.78,114.44,100.78z"/>
	<g>
		<path class="st6" d="M100.51,69.98c0,5.62-4.55,16.32-10.18,16.32c-1.66,0-3.22-0.93-4.6-2.39c-3.31-3.48-5.57-9.97-5.57-13.93
			c0-5.62,4.55-10.18,10.17-10.18C95.96,59.8,100.51,64.36,100.51,69.98z"/>
		<path class="st7" d="M90.33,59.8v26.5c0,0-1.93-0.89-4.6-2.39c-3.31-3.48-5.57-9.97-5.57-13.93C80.16,64.36,84.71,59.8,90.33,59.8
			z"/>
		<rect x="85.64" y="84.01" class="st2" width="9.4" height="9.4"/>
		<g>
			<path class="st2" d="M88.68,81.59c0,2.03-0.42,3.67-0.93,3.67c-0.52,0-0.93-1.64-0.93-3.67c0-2.03,0.42-3.67,0.93-3.67
				C88.26,77.91,88.68,79.56,88.68,81.59z"/>
			<path class="st2" d="M93.86,81.59c0,2.03-0.42,3.67-0.93,3.67c-0.52,0-0.93-1.64-0.93-3.67c0-2.03,0.42-3.67,0.93-3.67
				C93.45,77.91,93.86,79.56,93.86,81.59z"/>
		</g>
		<line class="st19" x1="85.64" y1="87.2" x2="95.04" y2="87.2"/>
		<line class="st19" x1="85.64" y1="90.09" x2="95.04" y2="90.09"/>
		<rect x="88.68" y="93.41" class="st2" width="3.31" height="2.06"/>
	</g>
</g>
</svg>
